{
	"asset":{
		"generator":"Khronos glTF Blender I/O v4.1.63",
		"version":"2.0"
	},
	"scene":0,
	"scenes":[
		{
			"name":"Scene",
			"nodes":[
				0
			]
		}
	],
	"nodes":[
		{
			"mesh":0,
			"name":"Suzanne",
			"rotation":[
				0,
				0.43964558839797974,
				0,
				0.8981713652610779
			],
			"translation":[
				0,
				1.004136085510254,
				0
			]
		}
	],
	"materials":[
		{
			"doubleSided":true,
			"name":"Material.001",
			"pbrMetallicRoughness":{
				"baseColorFactor":[
					0.3158177137374878,
					0.2641589045524597,
					0.8008192181587219,
					1
				],
				"metallicFactor":0.8954545259475708,
				"roughnessFactor":0.5
			}
		}
	],
	"meshes":[
		{
			"name":"Suzanne",
			"primitives":[
				{
					"attributes":{
						"POSITION":0,
						"NORMAL":1,
						"TEXCOORD_0":2
					},
					"indices":3,
					"material":0
				}
			]
		}
	],
	"accessors":[
		{
			"bufferView":0,
			"componentType":5126,
			"count":11134,
			"max":[
				1.3281859159469604,
				0.9392362236976624,
				0.8224415183067322
			],
			"min":[
				-1.3281859159469604,
				-0.971822202205658,
				-0.7782661318778992
			],
			"type":"VEC3"
		},
		{
			"bufferView":1,
			"componentType":5126,
			"count":11134,
			"type":"VEC3"
		},
		{
			"bufferView":2,
			"componentType":5126,
			"count":11134,
			"type":"VEC2"
		},
		{
			"bufferView":3,
			"componentType":5123,
			"count":47232,
			"type":"SCALAR"
		}
	],
	"bufferViews":[
		{
			"buffer":0,
			"byteLength":133608,
			"byteOffset":0,
			"target":34962
		},
		{
			"buffer":0,
			"byteLength":133608,
			"byteOffset":133608,
			"target":34962
		},
		{
			"buffer":0,
			"byteLength":89072,
			"byteOffset":267216,
			"target":34962
		},
		{
			"buffer":0,
			"byteLength":94464,
			"byteOffset":356288,
			"target":34963
		}
	],
	"buffers":[
		{
			"byteLength":450752,
			"uri":"monkey.bin"
		}
	]
}
