{
  "accessors": [
    {
      "bufferView": 2,
      "componentType": 5126,
      "count": 65533,
      "max": [
        21.685312271118164,
        16.908203125,
        28.12389373779297
      ],
      "min": [
        -21.320405960083008,
        -14.902557373046875,
        -5.7198486328125
      ],
      "type": "VEC3"
    },
    {
      "bufferView": 2,
      "byteOffset": 786396,
      "componentType": 5126,
      "count": 65533,
      "max": [
        1.0,
        1.0,
        1.0
      ],
      "min": [
        -1.0,
        -1.0,
        -1.0
      ],
      "type": "VEC3"
    },
    {
      "bufferView": 3,
      "componentType": 5126,
      "count": 65533,
      "max": [
        1.0,
        1.0,
        1.0,
        1.0
      ],
      "min": [
        -1.0,
        -1.0,
        -1.0,
        1.0
      ],
      "type": "VEC4"
    },
    {
      "bufferView": 1,
      "componentType": 5126,
      "count": 65533,
      "max": [
        0.999804675579071,
        0.9997866153717041
      ],
      "min": [
        0.00019531250291038305,
        0.00019531250291038305
      ],
      "type": "VEC2"
    },
    {
      "bufferView": 1,
      "byteOffset": 524264,
      "componentType": 5126,
      "count": 65533,
      "max": [
        0.999804675579071,
        0.9997866153717041
      ],
      "min": [
        0.00019531250291038305,
        0.00019531250291038305
      ],
      "type": "VEC2"
    },
    {
      "bufferView": 1,
      "byteOffset": 1048528,
      "componentType": 5126,
      "count": 65533,
      "max": [
        0.999804675579071,
        0.9997866153717041
      ],
      "min": [
        0.00019531250291038305,
        0.00019531250291038305
      ],
      "type": "VEC2"
    },
    {
      "bufferView": 1,
      "byteOffset": 1572792,
      "componentType": 5126,
      "count": 65533,
      "max": [
        0.999804675579071,
        0.9997866153717041
      ],
      "min": [
        0.00019531250291038305,
        0.00019531250291038305
      ],
      "type": "VEC2"
    },
    {
      "bufferView": 0,
      "componentType": 5125,
      "count": 117243,
      "type": "SCALAR"
    },
    {
      "bufferView": 2,
      "byteOffset": 1572792,
      "componentType": 5126,
      "count": 28065,
      "max": [
        21.5494327545166,
        16.825347900390625,
        -2.445629119873047
      ],
      "min": [
        -21.20882225036621,
        -14.148529052734375,
        -5.3996734619140625
      ],
      "type": "VEC3"
    },
    {
      "bufferView": 2,
      "byteOffset": 1909572,
      "componentType": 5126,
      "count": 28065,
      "max": [
        0.999997615814209,
        0.9999982118606567,
        1.0
      ],
      "min": [
        -0.9999976754188538,
        -0.999997615814209,
        -1.0
      ],
      "type": "VEC3"
    },
    {
      "bufferView": 3,
      "byteOffset": 1048528,
      "componentType": 5126,
      "count": 28065,
      "max": [
        0.999997615814209,
        0.9999976754188538,
        1.0,
        1.0
      ],
      "min": [
        -0.9999855756759644,
        -0.999890923500061,
        -1.0,
        1.0
      ],
      "type": "VEC4"
    },
    {
      "bufferView": 1,
      "byteOffset": 2097056,
      "componentType": 5126,
      "count": 28065,
      "max": [
        0.9998036026954651,
        0.9997876286506653
      ],
      "min": [
        0.00019531250291038305,
        0.00019531250291038305
      ],
      "type": "VEC2"
    },
    {
      "bufferView": 1,
      "byteOffset": 2321576,
      "componentType": 5126,
      "count": 28065,
      "max": [
        0.9998036026954651,
        0.9997876286506653
      ],
      "min": [
        0.00019531250291038305,
        0.00019531250291038305
      ],
      "type": "VEC2"
    },
    {
      "bufferView": 1,
      "byteOffset": 2546096,
      "componentType": 5126,
      "count": 28065,
      "max": [
        0.9998036026954651,
        0.9997876286506653
      ],
      "min": [
        0.00019531250291038305,
        0.00019531250291038305
      ],
      "type": "VEC2"
    },
    {
      "bufferView": 1,
      "byteOffset": 2770616,
      "componentType": 5126,
      "count": 28065,
      "max": [
        0.9998036026954651,
        0.9997876286506653
      ],
      "min": [
        0.00019531250291038305,
        0.00019531250291038305
      ],
      "type": "VEC2"
    },
    {
      "bufferView": 0,
      "byteOffset": 468972,
      "componentType": 5125,
      "count": 42873,
      "type": "SCALAR"
    },
    {
      "bufferView": 2,
      "byteOffset": 2246352,
      "componentType": 5126,
      "count": 641,
      "max": [
        25.741024017333984,
        19.74591064453125,
        0.7143211364746094
      ],
      "min": [
        -25.741260528564453,
        -19.292816162109375,
        -0.6853237152099609
      ],
      "type": "VEC3"
    },
    {
      "bufferView": 2,
      "byteOffset": 2254044,
      "componentType": 5126,
      "count": 641,
      "max": [
        1.0,
        1.0,
        1.0
      ],
      "min": [
        -1.0,
        -1.0,
        -0.00028411499806679785
      ],
      "type": "VEC3"
    },
    {
      "bufferView": 3,
      "byteOffset": 1497568,
      "componentType": 5126,
      "count": 641,
      "max": [
        1.0,
        0.9995827674865723,
        0.03209233656525612,
        1.0
      ],
      "min": [
        -1.0,
        -0.9996252059936523,
        -0.042151082307100296,
        -1.0
      ],
      "type": "VEC4"
    },
    {
      "bufferView": 1,
      "byteOffset": 2995136,
      "componentType": 5126,
      "count": 641,
      "max": [
        38.23193359375,
        1.0095263719558716
      ],
      "min": [
        -39.858306884765625,
        0.050804316997528076
      ],
      "type": "VEC2"
    },
    {
      "bufferView": 1,
      "byteOffset": 3000264,
      "componentType": 5126,
      "count": 641,
      "max": [
        38.23193359375,
        1.0095263719558716
      ],
      "min": [
        -39.858306884765625,
        0.050804316997528076
      ],
      "type": "VEC2"
    },
    {
      "bufferView": 1,
      "byteOffset": 3005392,
      "componentType": 5126,
      "count": 641,
      "max": [
        38.23193359375,
        1.0095263719558716
      ],
      "min": [
        -39.858306884765625,
        0.050804316997528076
      ],
      "type": "VEC2"
    },
    {
      "bufferView": 0,
      "byteOffset": 640464,
      "componentType": 5125,
      "count": 1044,
      "type": "SCALAR"
    },
    {
      "bufferView": 2,
      "byteOffset": 2261736,
      "componentType": 5126,
      "count": 231,
      "max": [
        25.58393096923828,
        19.345916748046875,
        0.6880416870117188
      ],
      "min": [
        -25.19860076904297,
        -18.993072509765625,
        -0.6111793518066406
      ],
      "type": "VEC3"
    },
    {
      "bufferView": 2,
      "byteOffset": 2264508,
      "componentType": 5126,
      "count": 231,
      "max": [
        0.002698470838367939,
        2.437880084471544e-07,
        1.0
      ],
      "min": [
        -0.020482119172811508,
        -0.042151305824518204,
        0.9989017248153687
      ],
      "type": "VEC3"
    },
    {
      "bufferView": 3,
      "byteOffset": 1507824,
      "componentType": 5126,
      "count": 231,
      "max": [
        0.00013962874072603881,
        1.0,
        0.042151302099227905,
        1.0
      ],
      "min": [
        -1.0,
        -1.0,
        -0.042148735374212265,
        1.0
      ],
      "type": "VEC4"
    },
    {
      "bufferView": 1,
      "byteOffset": 3010520,
      "componentType": 5126,
      "count": 231,
      "max": [
        6.853312969207764,
        6.54989767074585
      ],
      "min": [
        -6.856119155883789,
        -5.549898624420166
      ],
      "type": "VEC2"
    },
    {
      "bufferView": 1,
      "byteOffset": 3012368,
      "componentType": 5126,
      "count": 231,
      "max": [
        6.853312969207764,
        6.54989767074585
      ],
      "min": [
        -6.856119155883789,
        -5.549898624420166
      ],
      "type": "VEC2"
    },
    {
      "bufferView": 1,
      "byteOffset": 3014216,
      "componentType": 5126,
      "count": 231,
      "max": [
        6.853312969207764,
        6.54989767074585
      ],
      "min": [
        -6.856119155883789,
        -5.549898624420166
      ],
      "type": "VEC2"
    },
    {
      "bufferView": 0,
      "byteOffset": 644640,
      "componentType": 5125,
      "count": 399,
      "type": "SCALAR"
    }
  ],
  "asset": {
    "extras": {
      "author": "99.Miles (https://sketchfab.com/99.Miles)",
      "license": "CC-BY-4.0 (http://creativecommons.org/licenses/by/4.0/)",
      "source": "https://sketchfab.com/3d-models/free-london-kinnaird-house-ff13d8c9407f4796886a689a758dc862",
      "title": "[FREE] London, Kinnaird House"
    },
    "generator": "Sketchfab-16.33.0",
    "version": "2.0"
  },
  "bufferViews": [
    {
      "buffer": 0,
      "byteLength": 646236,
      "name": "floatBufferViews",
      "target": 34963
    },
    {
      "buffer": 0,
      "byteLength": 3016064,
      "byteOffset": 646236,
      "byteStride": 8,
      "name": "floatBufferViews",
      "target": 34962
    },
    {
      "buffer": 0,
      "byteLength": 2267280,
      "byteOffset": 3662300,
      "byteStride": 12,
      "name": "floatBufferViews",
      "target": 34962
    },
    {
      "buffer": 0,
      "byteLength": 1511520,
      "byteOffset": 5929580,
      "byteStride": 16,
      "name": "floatBufferViews",
      "target": 34962
    }
  ],
  "buffers": [
    {
      "byteLength": 7441100,
      "uri": "scene.bin"
    }
  ],
  "extensionsUsed": [
    "KHR_materials_clearcoat"
  ],
  "images": [
    {
      "uri": "textures/London_Building_baseColor.png"
    },
    {
      "uri": "textures/London_Building_metallicRoughness.png"
    },
    {
      "uri": "textures/London_Building_emissive.png"
    },
    {
      "uri": "textures/London_Building_normal.png"
    },
    {
      "uri": "textures/London_Building_clearcoat.png"
    },
    {
      "uri": "textures/London_Building_clearcoat_normal.png"
    },
    {
      "uri": "textures/Sidewalk_Curb_baseColor.png"
    },
    {
      "uri": "textures/Sidewalk_Curb_normal.png"
    },
    {
      "uri": "textures/Sidewalk_baseColor.png"
    },
    {
      "uri": "textures/Sidewalk_metallicRoughness.png"
    },
    {
      "uri": "textures/Sidewalk_normal.png"
    }
  ],
  "materials": [
    {
      "doubleSided": true,
      "emissiveFactor": [
        1.0,
        1.0,
        1.0
      ],
      "emissiveTexture": {
        "index": 2,
        "texCoord": 1
      },
      "extensions": {
        "KHR_materials_clearcoat": {
          "clearcoatFactor": 1.0,
          "clearcoatNormalTexture": {
            "index": 5
          },
          "clearcoatRoughnessFactor": 0.0,
          "clearcoatTexture": {
            "index": 4
          }
        }
      },
      "name": "London_Building",
      "normalTexture": {
        "index": 3,
        "texCoord": 2
      },
      "pbrMetallicRoughness": {
        "baseColorTexture": {
          "index": 0
        },
        "metallicFactor": 0.0,
        "metallicRoughnessTexture": {
          "index": 1
        }
      }
    },
    {
      "doubleSided": true,
      "name": "Sidewalk_Curb",
      "normalTexture": {
        "index": 7
      },
      "pbrMetallicRoughness": {
        "baseColorTexture": {
          "index": 6
        },
        "metallicFactor": 0.0,
        "roughnessFactor": 0.8211145618000169
      }
    },
    {
      "doubleSided": true,
      "name": "Sidewalk",
      "normalTexture": {
        "index": 10
      },
      "pbrMetallicRoughness": {
        "baseColorTexture": {
          "index": 8
        },
        "metallicFactor": 0.0,
        "metallicRoughnessTexture": {
          "index": 9
        }
      }
    }
  ],
  "meshes": [
    {
      "name": "Building_London_Building_0",
      "primitives": [
        {
          "attributes": {
            "NORMAL": 1,
            "POSITION": 0,
            "TANGENT": 2,
            "TEXCOORD_0": 3,
            "TEXCOORD_1": 4,
            "TEXCOORD_2": 5,
            "TEXCOORD_3": 6
          },
          "indices": 7,
          "material": 0,
          "mode": 4
        }
      ]
    },
    {
      "name": "Building_London_Building_0",
      "primitives": [
        {
          "attributes": {
            "NORMAL": 9,
            "POSITION": 8,
            "TANGENT": 10,
            "TEXCOORD_0": 11,
            "TEXCOORD_1": 12,
            "TEXCOORD_2": 13,
            "TEXCOORD_3": 14
          },
          "indices": 15,
          "material": 0,
          "mode": 4
        }
      ]
    },
    {
      "name": "Plane.002_Sidewalk_Curb_0",
      "primitives": [
        {
          "attributes": {
            "NORMAL": 17,
            "POSITION": 16,
            "TANGENT": 18,
            "TEXCOORD_0": 19,
            "TEXCOORD_1": 20,
            "TEXCOORD_2": 21
          },
          "indices": 22,
          "material": 1,
          "mode": 4
        }
      ]
    },
    {
      "name": "Plane.001_Sidewalk_0",
      "primitives": [
        {
          "attributes": {
            "NORMAL": 24,
            "POSITION": 23,
            "TANGENT": 25,
            "TEXCOORD_0": 26,
            "TEXCOORD_1": 27,
            "TEXCOORD_2": 28
          },
          "indices": 29,
          "material": 2,
          "mode": 4
        }
      ]
    }
  ],
  "nodes": [
    {
      "children": [
        1
      ],
      "matrix": [
        1.0,
        0.0,
        0.0,
        0.0,
        0.0,
        2.220446049250313e-16,
        -1.0,
        0.0,
        0.0,
        1.0,
        2.220446049250313e-16,
        0.0,
        0.0,
        0.0,
        0.0,
        1.0
      ],
      "name": "Sketchfab_model"
    },
    {
      "children": [
        2
      ],
      "matrix": [
        0.009999999776482582,
        0.0,
        0.0,
        0.0,
        0.0,
        0.0,
        0.009999999776482582,
        0.0,
        0.0,
        -0.009999999776482582,
        0.0,
        0.0,
        0.0,
        0.0,
        0.0,
        1.0
      ],
      "name": "London_Building.fbx"
    },
    {
      "children": [
        3,
        6,
        8
      ],
      "name": "RootNode"
    },
    {
      "children": [
        4,
        5
      ],
      "matrix": [
        100.0,
        0.0,
        0.0,
        0.0,
        0.0,
        -1.629206793918314e-05,
        -99.99999999999868,
        0.0,
        0.0,
        99.99999999999868,
        -1.629206793918314e-05,
        0.0,
        1788.877685546875,
        2250.318603515625,
        -41898.4921875,
        1.0
      ],
      "name": "Building"
    },
    {
      "mesh": 0,
      "name": "Building_London_Building_0"
    },
    {
      "mesh": 1,
      "name": "Building_London_Building_0"
    },
    {
      "children": [
        7
      ],
      "matrix": [
        100.0,
        0.0,
        0.0,
        0.0,
        0.0,
        -1.629206793918314e-05,
        -99.99999999999868,
        0.0,
        0.0,
        99.99999999999868,
        -1.629206793918314e-05,
        0.0,
        1810.123779296875,
        1762.0408935546875,
        -41970.34765625,
        1.0
      ],
      "name": "Plane.002"
    },
    {
      "mesh": 2,
      "name": "Plane.002_Sidewalk_Curb_0"
    },
    {
      "children": [
        9
      ],
      "matrix": [
        100.0,
        0.0,
        0.0,
        0.0,
        0.0,
        -1.629206793918314e-05,
        -99.99999999999868,
        0.0,
        0.0,
        99.99999999999868,
        -1.629206793918314e-05,
        0.0,
        1790.845458984375,
        1764.6688232421875,
        -41975.36328125,
        1.0
      ],
      "name": "Plane.001"
    },
    {
      "mesh": 3,
      "name": "Plane.001_Sidewalk_0"
    }
  ],
  "samplers": [
    {
      "magFilter": 9729,
      "minFilter": 9987,
      "wrapS": 10497,
      "wrapT": 10497
    }
  ],
  "scene": 0,
  "scenes": [
    {
      "name": "Sketchfab_Scene",
      "nodes": [
        0
      ]
    }
  ],
  "textures": [
    {
      "sampler": 0,
      "source": 0
    },
    {
      "sampler": 0,
      "source": 1
    },
    {
      "sampler": 0,
      "source": 2
    },
    {
      "sampler": 0,
      "source": 3
    },
    {
      "sampler": 0,
      "source": 4
    },
    {
      "sampler": 0,
      "source": 5
    },
    {
      "sampler": 0,
      "source": 6
    },
    {
      "sampler": 0,
      "source": 7
    },
    {
      "sampler": 0,
      "source": 8
    },
    {
      "sampler": 0,
      "source": 9
    },
    {
      "sampler": 0,
      "source": 10
    }
  ]
}
